<!-- Generator: Adobe Illustrator 18.0.0, SVG Export Plug-In  -->
<svg version="1.1"
	 xmlns="http://www.w3.org/2000/svg" xmlns:xlink="http://www.w3.org/1999/xlink" xmlns:a="http://ns.adobe.com/AdobeSVGViewerExtensions/3.0/"
	 x="0px" y="0px" width="508.6px" height="302px" viewBox="0 0 508.6 302" enable-background="new 0 0 508.6 302"
	 xml:space="preserve">
<defs>
</defs>
<path fill="#7E7E7E" d="M505.2,141.1C500.7,135.4,392.1,0,254.3,0C180.9,0,116.9,37,76.1,68.1C50.4,87.6,0,133.6,0,151
	c0,3.6,1.2,7,3.4,9.9C8,166.6,116.5,302,254.3,302c137.8,0,246.3-135.4,250.9-141.1C509.8,155.1,509.8,146.9,505.2,141.1z
	 M254.3,270.2c-103.6,0-193.1-91.7-218.6-120.5C58.1,121.8,147,31.8,254.3,31.8c102.1,0,190.5,89,217.5,119.2
	C444.8,181.2,356.4,270.2,254.3,270.2z"/>
<path fill="#FFA73D" d="M254.3,55.6c-52.7,0-95.4,42.7-95.4,95.4s42.7,95.4,95.4,95.4s95.4-42.7,95.4-95.4S307,55.6,254.3,55.6z
	 M254.3,182.8c-17.6,0-31.8-14.2-31.8-31.8s14.2-31.8,31.8-31.8s31.8,14.2,31.8,31.8S271.9,182.8,254.3,182.8z"/>
</svg>